# xmcd
#
# Track frame offsets:
#	150
#	24525
#	53962
#	88047
#	115722
#	142735
#	164748
#	193620
#	216796
#	238696
#	261122
#	283921
#	306422
#	322019
#
# Disc length: 4408
#
# Revision: 2
# Processed by: cddbd v1.5.1PL2 Copyright (c) Steve Scherf et al.
# Submitted via: ExactAudioCopy v0.90a11
# Normalized: r1:DSETVAR1,TDELIM( - )
#
DISCID=d111360e
DTITLE=Various Artist - Super Blues Collection - Blues Way ¹4
DYEAR=1900
DGENRE=
TTITLE0=J.J. CALE - Cloudy day
TTITLE1=TAJ MAHAL - Going To The River
TTITLE2=ERIC CLAPTON - Ain't Gone'n Give Up On Your Love
TTITLE3=GEORGE THOROGOOD and THE DESTROYERS - Killer's Bluze
TTITLE4=THE ROBERT CRAY BAND - Back Home
TTITLE5=JUNIOR WELLS - Sweet Sixteen
TTITLE6=GARY MOORE - Love That Burns
TTITLE7=TONY JOE WHITE - Ain't Going Down This Time
TTITLE8=KOKO TAYLOR - I'd Rather Go Blind
TTITLE9=ALVIN LEE - My Baby's Come Back To Me
TTITLE10=BERNARD ALLISON GROUP - You're Hurting Me
TTITLE11=RORY GALLAGHER - Off The Handle
TTITLE12=COREY HARRIS - Fish Ain't Bitin'
TTITLE13=TAJ MAHAL - Cajun Tune
EXTD=
EXTT0=From album: "SHADES"
EXTT1=From album: "DANCING THE BLUES"
EXTT2=From album: "A TRIBUTE TO STEVIE RAY VAUGHAN"
EXTT3=From album: "HAIRCUT"
EXTT4=From album: "SWEET POTATO PIE"
EXTT5=From album: "LIVE AT BADDY GUY'S LEGENDS"
EXTT6=From album: "BLUES FOR GREENY"
EXTT7=From album: "THE VERY BEST"
EXTT8=From album: "FROM THE HEART OF WOMAN"
EXTT9=From album: "I HEAR YOU ROCKIN"
EXTT10=From album: "HANG ON"
EXTT11=From album: "A BLUE DAY FOR THE BLUES"
EXTT12=From album: "FISH AIN'T BITIN'"
EXTT13=From album: "DE OLE FOLKS AT HOME"
PLAYORDER=
